<svg xmlns="http://www.w3.org/2000/svg" width="4101" height="2343" viewBox="0 0 4101 2343">
  <g fill="none" fill-rule="evenodd" transform="translate(2 3)">
    <g transform="translate(0 1506)">
      <path stroke="#59221D" stroke-linecap="round" stroke-width="5" d="M3998.79,763.49 C4039.93,525.61 3826.33,330.05 3593.94,338.34 L3581.58,338.34 C3489.25,338.34 3402.58,296.52 3348.58,225.93 L3314.91,181.93 C3227.81,68.08 3092.33,0.63 2943.43,0.63 C2861.22,0.63 2802.15,19.47 2756.78,48.86 C2673.9,102.55 2562.63,288.22 2449.73,292.96 C2283.24,299.96 2174.21,58.75 1757.45,482.43"/>
      <path stroke="#59221D" stroke-linecap="round" stroke-width="5" d="M134.28,765.9 C-78.55,765.9 -39.72,438.27 267.1,575.39 C529.28,692.57 365.22,188.15 700.37,305.98 C782.66,334.91 977.94,482.79 1087.58,483.57 C1131.91,483.88 1443.17,316.57 1707.58,455.57 C1960.04,588.27 2198.85,765.89 2198.85,765.89"/>
      <path fill="#7EBAD2" fill-rule="nonzero" d="M4037.06,765.79 L3555,765.79 C3565.49,666.36 3669.38,588.28 3796,588.28 C3922.62,588.28 4026.57,666.36 4037.06,765.79 Z"/>
      <path fill="#FFF" fill-rule="nonzero" d="M3741 765.79L3683 688.57 3632.68 688.57 3565.75 724.22C3565.55468 724.324334 3565.34611 724.401705 3565.13 724.45 3566.07 722.04 3567.06 719.66 3568.13 717.29L3622.06 688.57 3584.27 688.57C3585.43 686.88 3586.62 685.22 3587.84 683.57L3679.27 683.57 3641.4 633.15C3642.78 632.22 3644.18 631.3 3645.6 630.41L3747.6 765.79 3741 765.79zM3922.57 764L4005.42 685.16C4006.40667 686.533333 4007.37333 687.913333 4008.32 689.3L3927.92 765.81 3922.57 764zM3807.3 764.7L3807.3 658.19 3763.57 590.86C3763.41028 590.61303 3763.29834 590.338272 3763.24 590.05 3765.04 589.85 3766.85 589.67 3768.66 589.51L3807.3 649.01 3807.3 588.49C3808.97 588.55 3810.64 588.62 3812.3 588.71L3812.3 730.79 3904.3 608.79C3905.9 609.43 3907.49 610.08 3909.07 610.79L3856.07 681.15 3965.07 643.56C3966.61667 644.78 3968.14667 646.013333 3969.66 647.26L3969.52 647.32 3850.68 688.32 3812.34 739.19 3812.34 764.78 3807.3 764.7z"/>
      <path fill="#A74602" fill-rule="nonzero" d="M3485.05125,679.073369 L3505.95125,679.073369 L3505.95125,699.973369 C3505.95125,721.937734 3488.14561,739.743369 3466.18125,739.743369 L3445.28125,739.743369 L3445.28125,718.793369 C3445.30884,696.848534 3463.1064,679.073369 3485.05125,679.073369 Z" transform="rotate(-47.99 3475.616 709.408)"/>
      <path fill="#FFF" fill-rule="nonzero" stroke="#59221D" stroke-width="5" d="M3459.63,677.3 L3475.63,677.3 L3475.63,693.3 C3475.63,724.829936 3450.06994,750.39 3418.54,750.39 L3402.54,750.39 L3402.54,734.39 C3402.54,702.860064 3428.10006,677.3 3459.63,677.3 L3459.63,677.3 Z" transform="rotate(-90 3439.085 713.845)"/>
      <path fill="#FFC200" fill-rule="nonzero" d="M276.354855,514.784261 L279.964855,514.784261 C302.790784,514.784261 321.294855,533.288332 321.294855,556.114261 L321.294855,559.724261 L317.684855,559.724261 C294.858927,559.724261 276.354855,541.22019 276.354855,518.394261 L276.354855,514.784261 L276.354855,514.784261 Z" transform="rotate(-176.58 298.825 537.254)"/>
      <path stroke="#59221D" stroke-linecap="round" stroke-width="5" d="M320.912466,493.295478 L325.262466,493.295478 C338.472795,493.295478 351.141624,498.545311 360.479924,507.889237 C369.818223,517.233163 375.060426,529.905152 375.052475,543.115478 L375.052475,547.465478 L370.702466,547.465478 C343.204208,547.465478 320.912466,525.173736 320.912466,497.675478 L320.912466,493.325478 L320.912466,493.295478 Z" transform="rotate(-119.28 347.982 520.38)"/>
      <path fill="#FFC200" fill-rule="nonzero" d="M3501.54579,245.759552 L3516.46355,245.759552 L3516.46355,260.677314 C3516.46355,282.638383 3498.66058,300.441348 3476.69951,300.441348 L3461.78175,300.441348 L3461.78175,285.523586 C3461.78175,263.562517 3479.58472,245.759552 3501.54579,245.759552 L3501.54579,245.759552 Z" transform="rotate(-81.951 3489.123 273.1)"/>
      <path stroke="#59221D" stroke-linecap="round" stroke-width="5" d="M3579.33,225.94 L3619.61,225.94 L3619.61,266.22 C3619.61,288.184365 3601.80436,305.99 3579.84,305.99 L3539.56,305.99 L3539.56,265.71 C3539.56,255.16234 3543.75004,245.046685 3551.20836,237.588363 C3558.66669,230.130042 3568.78234,225.94 3579.33,225.94 Z"/>
      <line x1="3539.56" x2="3619.61" y1="305.98" y2="225.94" stroke="#59221D" stroke-linecap="round" stroke-width="5"/>
      <line x1="3587.81" x2="3619.61" y1="261.22" y2="261.22" stroke="#59221D" stroke-linecap="round" stroke-width="5"/>
      <line x1="3561.36" x2="3561.36" y1="231.67" y2="283.84" stroke="#59221D" stroke-linecap="round" stroke-width="5"/>
      <path stroke="#59221D" stroke-linecap="round" stroke-width="5" d="M196.87,653.67 L218.75,653.67 L218.75,675.55 C218.744483,697.502651 200.952649,715.298961 179,715.31 L157.1,715.31 L157.1,693.43 C157.105522,671.469541 174.90954,653.67 196.87,653.67 Z"/>
      <line x1="157.1" x2="218.74" y1="715.31" y2="653.67" stroke="#59221D" stroke-linecap="round" stroke-width="5"/>
      <line x1="192.4" x2="217.65" y1="680.84" y2="680.84" stroke="#59221D" stroke-linecap="round" stroke-width="5"/>
      <line x1="173.88" x2="173.88" y1="662.43" y2="698.26" stroke="#59221D" stroke-linecap="round" stroke-width="5"/>
    </g>
    <g transform="translate(124 111)">
      <path stroke="#7EBAD2" stroke-width="5" d="M1101.83,365.35 L1596.55,27 C1653.4,-11.88 1725.42,-7.1 1777.9,39 L2697.59,847.68 L0.47,847.68 L872.13,324 C916.48,297.35 969.23,295.75 1014.77,319.67 L1101.83,365.35 Z"/>
      <path fill="#7EBAD2" fill-rule="nonzero" d="M1107.17,364.53 L906.17,498.53 C904.039135,499.955611 901.221243,499.795264 899.265854,498.13713 C897.310464,496.478997 896.691776,493.725191 897.75,491.39 L978.84,305.51 L1107.17,364.53 Z"/>
    </g>
    <g stroke="#59221D" stroke-linecap="round" stroke-width="5" transform="translate(39 958)">
      <path d="M3820.29,0.69 C3667.8,5.11 3430.5,39.9 3290.73,101.52 L3089.39,190.3 C2943.82395,254.486782 2786.47934,287.634726 2627.39,287.63 L1822.51,287.63 C1722.51891,287.626974 1622.94585,300.533659 1526.26,326.03 L1526.26,326.03 C1429.57129,351.530239 1329.99485,364.44 1230,364.44 L541.6,364.44 C346.356511,364.453424 164.861496,263.941944 61.28,98.44 L0.12,0.69 L3820.29,0.69 Z"/>
      <path d="M213 60.64C221.973191 51.709095 236.476809 51.709095 245.45 60.64L245.45 60.64C254.423191 69.570905 268.926809 69.570905 277.9 60.64L277.9 60.64C286.873191 51.709095 301.376809 51.709095 310.35 60.64L310.51 60.79C319.483191 69.720905 333.986809 69.720905 342.96 60.79L343.43 60.33C347.731104 56.0230323 353.568173 53.6029095 359.655 53.6029095 365.741827 53.6029095 371.578896 56.0230323 375.88 60.33L376.35 60.79C385.323191 69.720905 399.826809 69.720905 408.8 60.79L409.11 60.48C418.083191 51.549095 432.586809 51.549095 441.56 60.48L441.87 60.79C450.844352 69.7275423 465.355648 69.7275423 474.33 60.79L474.48 60.64C483.453191 51.709095 497.956809 51.709095 506.93 60.64M507.11 60.79C516.083191 69.720905 530.586809 69.720905 539.56 60.79L539.72 60.64C548.693191 51.709095 563.196809 51.709095 572.17 60.64M310.34 90.26L310.5 90.42C319.473191 99.350905 333.976809 99.350905 342.95 90.42L343.42 89.95C352.393191 81.019095 366.896809 81.019095 375.87 89.95L376.34 90.42C385.313191 99.350905 399.816809 99.350905 408.79 90.42L409.1 90.1C418.073191 81.169095 432.576809 81.169095 441.55 90.1L441.86 90.42C450.834352 99.3575423 465.345648 99.3575423 474.32 90.42L474.47 90.26C483.443191 81.329095 497.946809 81.329095 506.92 90.26M2567 126.92L2567 126.92C2575.97319 135.850905 2590.47681 135.850905 2599.45 126.92L2599.45 126.92C2608.42435 117.982458 2622.93565 117.982458 2631.91 126.92L2632.06 127.08C2641.03319 136.010905 2655.53681 136.010905 2664.51 127.08L2664.98 126.61C2673.95319 117.679095 2688.45681 117.679095 2697.43 126.61L2697.9 127.08C2706.87319 136.010905 2721.37681 136.010905 2730.35 127.08L2730.66 126.76C2739.63319 117.829095 2754.13681 117.829095 2763.11 126.76L2763.43 127.08C2772.40319 136.010905 2786.90681 136.010905 2795.88 127.08L2796.03 126.92C2805.00435 117.982458 2819.51565 117.982458 2828.49 126.92M2631.87 156.54L2632.02 156.7C2640.99319 165.630905 2655.49681 165.630905 2664.47 156.7L2664.94 156.23C2673.91319 147.299095 2688.41681 147.299095 2697.39 156.23L2697.86 156.7C2706.83319 165.630905 2721.33681 165.630905 2730.31 156.7L2730.62 156.39C2739.59319 147.459095 2754.09681 147.459095 2763.07 156.39L2763.39 156.7C2772.36319 165.630905 2786.86681 165.630905 2795.84 156.7L2795.99 156.54"/>
    </g>
    <g stroke="#59221D" stroke-linecap="round" stroke-width="5" transform="translate(39 486)">
      <line x1="1234.25" x2="1234.25" y1="94.7" y2="376.53"/>
      <line x1="1194.27" x2="1194.27" y1="134.57" y2="376.53"/>
      <line x1="1154.29" x2="1154.29" y1="162.48" y2="376.53"/>
      <line x1="1114.32" x2="1114.32" y1="183.41" y2="376.53"/>
      <line x1="1074.34" x2="1074.34" y1="200.36" y2="376.53"/>
      <line x1="1034.36" x2="1034.36" y1="212.32" y2="376.53"/>
      <line x1="994.39" x2="994.39" y1="221.29" y2="376.53"/>
      <line x1="1301.39" x2="1301.39" y1="85.57" y2="376.53"/>
      <line x1="1341.36" x2="1341.36" y1="119.2" y2="375.53"/>
      <line x1="1381.34" x2="1381.34" y1="144.76" y2="375.53"/>
      <line x1="1421.32" x2="1421.32" y1="165.94" y2="375.53"/>
      <line x1="1461.29" x2="1461.29" y1="183.89" y2="375.53"/>
      <line x1="1501.27" x2="1501.27" y1="198.56" y2="375.53"/>
      <line x1="1541.25" x2="1541.25" y1="211.07" y2="375.53"/>
      <line x1="1581.29" x2="1581.29" y1="221.89" y2="375.53"/>
      <line x1="1621.27" x2="1621.27" y1="229.56" y2="375.53"/>
      <line x1="1661.25" x2="1661.25" y1="238.07" y2="375.53"/>
      <line x1="1701.29" x2="1701.29" y1="243.89" y2="375.53"/>
      <line x1="1741.27" x2="1741.27" y1="249.56" y2="375.53"/>
      <line x1="1781.25" x2="1781.25" y1="253.07" y2="375.53"/>
      <line x1="1821.29" x2="1821.29" y1="255.89" y2="375.53"/>
      <line x1="1861.27" x2="1861.27" y1="258.56" y2="375.53"/>
      <line x1="1901.25" x2="1901.25" y1="259.07" y2="375.53"/>
      <line x1="954.41" x2="954.41" y1="229.26" y2="376.53"/>
      <line x1="914.43" x2="914.43" y1="233.25" y2="376.53"/>
      <line x1="874.46" x2="874.46" y1="236.24" y2="376.53"/>
      <line x1="834.48" x2="834.48" y1="238.23" y2="376.53"/>
      <line x1="794.5" x2="794.5" y1="238.23" y2="376.53"/>
      <line x1="754.53" x2="754.53" y1="233.25" y2="376.53"/>
      <line x1="714.55" x2="714.55" y1="226.27" y2="376.53"/>
      <line x1="674.57" x2="674.57" y1="216.3" y2="376.53"/>
      <line x1="634.6" x2="634.6" y1="203.35" y2="376.53"/>
      <line x1="594.62" x2="594.62" y1="187.4" y2="376.53"/>
      <line x1="554.64" x2="554.64" y1="166.47" y2="376.53"/>
      <line x1="514.67" x2="514.67" y1="141.55" y2="376.53"/>
      <line x1="446.15" x2="446.15" y1="166.47" y2="375.14"/>
      <line x1="406.17" x2="406.17" y1="207" y2="375.14"/>
      <line x1="366.2" x2="366.2" y1="239.24" y2="375.14"/>
      <line x1="326.22" x2="326.22" y1="266.8" y2="375.14"/>
      <line x1="286.24" x2="286.24" y1="291.13" y2="375.14"/>
      <line x1="246.27" x2="246.27" y1="312.45" y2="375.14"/>
      <line x1="206.29" x2="206.29" y1="329.73" y2="375.14"/>
      <line x1="166.31" x2="166.31" y1="346.48" y2="375.14"/>
      <line x1="126.34" x2="126.34" y1="357.54" y2="375.14"/>
      <line x1="2579.34" x2="2579.34" y1="55.39" y2="376.1"/>
      <line x1="2619.82" x2="2619.82" y1="99.25" y2="376.1"/>
      <line x1="2660.3" x2="2660.3" y1="133.14" y2="376.1"/>
      <line x1="2700.78" x2="2700.78" y1="160.05" y2="376.1"/>
      <line x1="2741.26" x2="2741.26" y1="181.98" y2="376.1"/>
      <line x1="2781.74" x2="2781.74" y1="198.93" y2="376.1"/>
      <line x1="2822.22" x2="2822.22" y1="213.88" y2="376.1"/>
      <line x1="2862.7" x2="2862.7" y1="223.84" y2="376.1"/>
      <line x1="2903.17" x2="2903.17" y1="230.82" y2="376.1"/>
      <line x1="2943.65" x2="2943.65" y1="235.81" y2="376.1"/>
      <line x1="2984.13" x2="2984.13" y1="237.8" y2="376.1"/>
      <line x1="3024.61" x2="3024.61" y1="237.8" y2="376.1"/>
      <line x1="3065.09" x2="3065.09" y1="232.82" y2="376.1"/>
      <line x1="3105.57" x2="3105.57" y1="224.84" y2="376.1"/>
      <line x1="3146.05" x2="3146.05" y1="214.87" y2="376.1"/>
      <line x1="3186.53" x2="3186.53" y1="200.92" y2="376.1"/>
      <line x1="3227.01" x2="3227.01" y1="184.97" y2="376.1"/>
      <line x1="3267.49" x2="3267.49" y1="164.04" y2="376.1"/>
      <line x1="3306.99" x2="3306.99" y1="139.12" y2="376.1"/>
      <line x1="3661.97" x2="3661.97" y1="354.6" y2="376.1"/>
      <line x1="3621.49" x2="3621.49" y1="340.55" y2="376.1"/>
      <line x1="3581.01" x2="3581.01" y1="324.06" y2="376.1"/>
      <line x1="3540.53" x2="3540.53" y1="305.93" y2="376.1"/>
      <line x1="3500.05" x2="3500.05" y1="283.55" y2="376.1"/>
      <line x1="3459.57" x2="3459.57" y1="256.54" y2="376.1"/>
      <line x1="3419.09" x2="3419.09" y1="222.46" y2="376.1"/>
      <line x1="3379.59" x2="3379.59" y1="182.13" y2="376.1"/>
      <line x1="2506.57" x2="2506.57" y1="43.53" y2="376.1"/>
      <line x1="2466.09" x2="2466.09" y1="81.18" y2="376.1"/>
      <line x1="2425.61" x2="2425.61" y1="111.4" y2="376.1"/>
      <line x1="2385.13" x2="2385.13" y1="136.36" y2="376.1"/>
      <line x1="2344.65" x2="2344.65" y1="158.17" y2="376.1"/>
      <line x1="2304.17" x2="2304.17" y1="177.79" y2="376.1"/>
      <line x1="2263.69" x2="2263.69" y1="194.33" y2="376.1"/>
      <line x1="2223.21" x2="2223.21" y1="210.7" y2="376.1"/>
      <line x1="2182.73" x2="2182.73" y1="221.94" y2="376.1"/>
      <line x1="2142.25" x2="2142.25" y1="232.11" y2="376.1"/>
      <line x1="2101.77" x2="2101.77" y1="241.16" y2="376.1"/>
      <line x1="2061.29" x2="2061.29" y1="248.15" y2="376.1"/>
      <line x1="2020.81" x2="2020.81" y1="252.93" y2="376.1"/>
      <line x1="1980.33" x2="1980.33" y1="259.61" y2="376.1"/>
      <line x1="1939.85" x2="1939.85" y1="259.2" y2="376.1"/>
      <line x1="1266.75" x2="1266.75" y1="50.6" y2="471.79"/>
      <line x1="479.52" x2="479.52" y1="116.76" y2="471.79"/>
      <line x1="2541.97" x2="2541.97" y1=".58" y2="471.79"/>
      <line x1="3339.11" x2="3339.11" y1="116.76" y2="471.79"/>
      <path d="M1266.48 45.53C1378.2 199.34 1671.63 258.81 1916.56 258.81M479.79 116.4C566.64 184.1 688.29 237.06 822.94 237.06 1023.62 237.06 1195.41 178.48 1266.19 46.06M.12 375.63C200.75 375.63 433.76 218.32 479.68 116.46M2542.24 0C2429.12 153.84 2163 258.81 1915 258.81M3338.84 116.4C3250.84 184.1 3127.71 237.06 2991.36 237.06 2788.16 237.06 2614.21 132.72 2542.54.26M3820.29 375.64C3600.44 375.64 3385.49 236.18 3338.94 116.46"/>
      <line x1="3819.27" x2=".12" y1="376.42" y2="376.42"/>
      <path d="M387.88 376.42C438.55 376.42 479.63 418.58 479.63 470.58M571.27 376.42C520.6 376.42 479.52 418.58 479.52 470.58M1175.88 376.42C1226.55 376.42 1267.63 418.58 1267.63 470.58M1359.27 376.42C1308.6 376.42 1267.52 418.58 1267.52 470.58M3246.25 376.42C3297.56 376.42 3339.15 418.58 3339.15 470.58M3431.94 376.42C3380.64 376.42 3339.04 418.58 3339.04 470.58M2449.18 376.42C2500.48 376.42 2542.08 418.58 2542.08 470.58M2634.87 376.42C2583.56 376.42 2541.97 418.58 2541.97 470.58"/>
    </g>
    <g transform="translate(251 337)">
      <g stroke="#59221D" stroke-linecap="round" stroke-width="5" transform="translate(0 1934)">
        <line x1=".99" x2="3845.37" y1=".79" y2=".79"/>
        <line x1="691" x2="2198.7" y1="66.18" y2="66.18"/>
      </g>
      <path fill="#FFF" fill-rule="nonzero" d="M642.77 58.71L547.41 486.22C539.37222 522.253876 507.399455 547.88 470.48 547.88L48.84 547.88C34.2507117 547.88 20.4503531 541.256634 11.3248822 529.873615 2.19941133 518.490596-1.26395914 503.57985 1.91 489.34L97.28 61.83C105.317619 25.8016483 137.285972.18 174.2.18L595.85.18C610.436688.18 624.234572 6.80223566 633.358181 18.1834135 642.481791 29.5645913 645.944054 44.4728359 642.77 58.71L642.77 58.71zM1285.44 58.71L1190.07 486.22C1182.03979 522.254431 1150.06835 547.88 1113.15 547.88L669.75 547.88C655.161125 547.88 641.36111 541.257105 632.237082 529.87346 623.113053 518.489815 619.652436 503.578622 622.83 489.34L718.2 61.83C726.234241 25.7995434 758.204653.18 795.12.18L1238.52.18C1253.10669.18 1266.90457 6.80223566 1276.02818 18.1834135 1285.15179 29.5645913 1288.61405 44.4728359 1285.44 58.71L1285.44 58.71zM1962.51 547.88L1335.18 547.88C1317.69826 547.88 1301.16201 539.942947 1290.2294 526.30149 1279.29678 512.660032 1275.15104 494.791747 1278.96 477.73L1371.74 61.83C1379.77424 25.7995434 1411.74465.18 1448.66.18L1687.87.18C1715.15828.18 1740.24462 15.1577759 1753.19 39.18L1996.65 490.69C2010.58 516.52 1991.87 547.88 1962.51 547.88z" transform="translate(479 695)"/>
      <g transform="translate(1664 742)">
        <g fill-rule="nonzero" transform="translate(0 168)">
          <path fill="#FFF" stroke="#59221D" stroke-width="5" d="M0.83,332.88 L0.83,117.19 C0.83,52.6886641 53.1186641,0.4 117.62,0.4 L390.89,0.4 C436.546698,0.4 477.771363,27.7212366 495.56,69.77 L606.87,332.88 L0.83,332.88 Z"/>
          <g fill="#7EBAD2" transform="translate(3 24)">
            <polygon points="590.7 284.15 .32 284.15 .32 278.15 588.16 278.15"/>
            <polygon points="578.96 256.42 .32 256.42 .32 250.42 576.43 250.42"/>
            <polygon points="567.23 228.69 .32 228.69 .32 222.69 564.69 222.69"/>
            <polygon points="555.5 200.96 .32 200.96 .32 194.96 552.96 194.96"/>
            <polygon points="543.77 173.23 .32 173.23 .32 167.23 541.23 167.23"/>
            <polygon points="532.04 145.5 .32 145.5 .32 139.5 529.5 139.5"/>
            <polygon points="520.31 117.77 .32 117.77 .32 111.77 517.77 111.77"/>
            <path d="M508.57 90L.37 90C.423333333 88 .526666667 86 .68 84L506 84 508.57 90zM496.85 62.32L4.56 62.32C5.12 60.32 5.75 58.32 6.43 56.32L494.31 56.32 496.85 62.32zM484.22 34.59L16.52 34.59C17.74 32.55 19.0266667 30.55 20.38 28.59L480.52 28.59C481.81 30.55 483.05 32.54 484.22 34.59zM461.65 6.86L39.79 6.86C42.22 4.76 44.73 2.75 47.33.86L454.33.86C456.836667 2.75333333 459.276667 4.75333333 461.65 6.86z"/>
          </g>
        </g>
        <g stroke="#FFD100" stroke-width="5" transform="translate(495 343)">
          <line x1="209.34" x2="24.85" y1="53.86" y2="160.05"/>
          <path d="M208.67,160.18 C213.61348,148.50659 217.051101,136.251454 218.9,123.71 C228.85,57.71 188.43,2.6 128.62,0.64 C68.81,-1.32 12.27,50.64 2.32,116.64 C0.0669826127,131.056224 0.330892114,145.753953 3.1,160.08 L208.67,160.18 Z"/>
        </g>
        <g transform="translate(0 382)">
          <path fill="#A74602" fill-rule="nonzero" d="M541.46,118.88 L0.17,118.88 C34.17,90.6 369.39,-40.79 509.45,14.23 C590.27,46 541.46,118.88 541.46,118.88 Z"/>
          <path stroke="#59221D" stroke-linecap="round" stroke-linejoin="round" stroke-width="5" d="M508.37 47.94C538.42 59.75 547.55 74.24 550.93 91.56M497.5 78.39C527.55 90.2 537.68 101.69 541.06 119.01"/>
        </g>
        <g transform="translate(208 99)">
          <polygon fill="#A74602" fill-rule="nonzero" points="119.61 69.4 119.61 17.57 45.29 .66 .91 69.4 120.58 145.52"/>
          <line x1=".91" x2="123.84" y1="69.4" y2="145.52" stroke="#59221D" stroke-linecap="round" stroke-width="5"/>
          <path fill="#59221D" fill-rule="nonzero" d="M119.61,71.4 L119.61,17.57 L48.55,1.75 L48.55,1.75 C48.8305947,13.2751902 54.5780562,23.9792803 64.03,30.58 L119.61,71.4 Z"/>
        </g>
        <g transform="translate(230)">
          <path fill="#59221D" fill-rule="nonzero" d="M109.66,52.3 C106.879474,46.5825897 101.077679,42.9554974 94.72,42.96 L58.35,42.96 C57.71,42.96 57.08,42.96 56.46,43.04 C44.2221918,44.0248997 34.7921205,54.2426235 34.79,66.52 L34.79,73.9 C23.5,73.1 14.58,63.34 14.58,51.43 C14.58,38.99 24.31,28.91 36.3,28.91 C38.0058128,28.9066758 39.7054527,29.1149321 41.36,29.53 C45.24,22.22 65.63,-13.12 87.28,5.94 C93.01,10.94 87.92,21.12 87.56,21.84 C88.56,20.75 110.48,-3.09 129.85,15.39 C144.94,29.79 121.63,45.59 109.66,52.3 Z"/>
          <path fill="#A74602" fill-rule="nonzero" d="M111.34,59.57 L111.34,102.71 C111.34,115.572712 100.912712,126 88.05,126 L58.05,126 C45.1872882,126 34.76,115.572712 34.76,102.71 L34.76,102.55 L18.29,102.55 C8.68024535,102.55 0.89,94.7597546 0.89,85.15 L0.89,81.69 C0.89,72.0802454 8.68024535,64.29 18.29,64.29 L21,64.29 C26.2943931,64.2736732 31.3274773,66.5890382 34.76,70.62 L34.76,66.52 C34.76,53.5081713 45.3081713,42.9599518 58.32,42.9599518 L94.69,42.9599518 C99.1021723,42.9493746 103.337274,44.6946599 106.46091,47.8107916 C109.584546,50.9269232 111.34,55.1578149 111.34,59.57 Z"/>
          <g transform="translate(17 62)">
            <path stroke="#59221D" stroke-linecap="round" stroke-width="5" d="M89.94,2.93 C89.94,2.93 66.26,-1.07 69.76,8.44 C73.26,17.95 73.28,28.28 70.85,33.38"/>
            <ellipse cx="48.86" cy="18.9" fill="#59221D" fill-rule="nonzero" rx="3.14" ry="4.28"/>
            <ellipse cx="81.34" cy="18.9" fill="#59221D" fill-rule="nonzero" rx="3.14" ry="4.28"/>
            <path stroke="#59221D" stroke-linecap="round" stroke-width="5" d="M69.69 43.56C69.69 43.56 58.04 46.56 56.59 38.19M34.41 4C40.6495677 1.09116088 47.6426362.206537708 54.41 1.47M12.39 24.34C12.39 17.568989 6.90101103 12.08.13 12.08"/>
          </g>
          <circle cx="38.25" cy="46.07" r="17.22" fill="#59221D" fill-rule="nonzero"/>
        </g>
      </g>
      <g transform="translate(205)">
        <g stroke="#59221D" stroke-width="5" transform="translate(2312 1645)">
          <path fill="#FFF" fill-rule="nonzero" d="M297.76,144.71 C297.76,224.47 242.38,289.12 166.95,289.12 L132.09,289.12 C204.86,289.12 263.84,224.47 263.84,144.71 C263.84,64.95 204.84,0.29 132.09,0.29 L167,0.29 C242.38,0.29 297.76,65 297.76,144.71 Z"/>
          <ellipse cx="132.1" cy="144.71" fill="#A74602" fill-rule="nonzero" rx="131.75" ry="144.42"/>
          <ellipse cx="132.09" cy="145.84" rx="79.86" ry="87.54"/>
        </g>
        <g fill-rule="nonzero" transform="translate(0 618)">
          <path fill="#FFC200" d="M2766.4,837 L2334.12,624.9 L2038.79,77.2 L2027.88,56.95 C2009.38998,22.3324613 1973.33608,0.71 1934.09,0.71 L408.94,0.71 C359.14359,0.71 316.017299,35.2693978 305.17,83.87 L72.6,1126.4 L2817.6,1126.4 L2817.6,922.47 C2817.6,886.722067 2797.91217,853.878919 2766.4,837 L2766.4,837 Z M744.48,624.9 L322.84,624.9 C308.250712,624.9 294.450353,618.276634 285.324882,606.893615 C276.199411,595.510596 272.736041,580.59985 275.91,566.36 L371.28,138.85 C379.317619,102.821648 411.285972,77.2 448.2,77.2 L869.85,77.2 C884.436688,77.2 898.234572,83.8222357 907.358181,95.2034135 C916.481791,106.584591 919.944054,121.492836 916.77,135.73 L821.41,563.24 C813.36416,599.265928 781.393453,624.882389 744.48,624.88 L744.48,624.9 Z M1387.15,624.9 L943.75,624.9 C929.161125,624.9 915.36111,618.277105 906.237082,606.89346 C897.113053,595.509815 893.652436,580.598622 896.83,566.36 L992.2,138.85 C1000.23424,102.819543 1032.20465,77.2 1069.12,77.2 L1512.52,77.2 C1527.10669,77.2 1540.90457,83.8222357 1550.02818,95.2034135 C1559.15179,106.584591 1562.61405,121.492836 1559.44,135.73 L1464.07,563.24 C1456.03173,599.266482 1424.06235,624.885213 1387.15,624.88 L1387.15,624.9 Z M2236.51,624.9 L1609.18,624.9 C1591.69826,624.9 1575.16201,616.962947 1564.2294,603.32149 C1553.29678,589.680032 1549.15104,571.811747 1552.96,554.75 L1645.74,138.85 C1653.77424,102.819543 1685.74465,77.2 1722.66,77.2 L1961.87,77.2 C1989.15828,77.2 2014.24462,92.1777759 2027.19,116.2 L2270.65,567.71 C2284.58,593.52 2265.87,624.88 2236.51,624.88 L2236.51,624.9 Z"/>
          <path fill="#FFF" stroke="#59221D" stroke-width="5" d="M2889.74,1148.51 L2889.74,1173.51 C2889.74,1185.72102 2879.84102,1195.62 2867.63,1195.62 L22.57,1195.62 C16.704331,1195.62265 11.0779966,1193.29438 6.9294042,1189.14767 C2.7808118,1185.00095 0.44999773,1179.37567 0.44999773,1173.51 L0.44999773,1148.51 C0.44999773,1142.64352 2.77730274,1137.01669 6.9264714,1132.8694 C11.0756401,1128.72211 16.703518,1126.39469 22.57,1126.39999 L2867.63,1126.39999 C2873.49475,1126.39735 2879.12006,1128.72593 2883.26706,1132.87294 C2887.41407,1137.01994 2889.74,1142.64525 2889.74,1148.51 Z"/>
          <path fill="#FFF" stroke="#59221D" stroke-width="5" d="M2181.83,1148.51 L2181.83,1173.51 C2181.83,1185.72102 2171.93102,1195.62 2159.72,1195.62 L22.57,1195.62 C16.704331,1195.62265 11.0779966,1193.29438 6.9294042,1189.14767 C2.7808118,1185.00095 0.44999773,1179.37567 0.44999773,1173.51 L0.44999773,1148.51 C0.44999773,1142.64352 2.77730274,1137.01669 6.9264714,1132.8694 C11.0756401,1128.72211 16.703518,1126.39469 22.57,1126.39999 L2159.72,1126.39999 C2165.58475,1126.39735 2171.21006,1128.72593 2175.35706,1132.87294 C2179.50407,1137.01994 2181.83,1142.64525 2181.83,1148.51 Z"/>
        </g>
        <g transform="translate(2099 1455)">
          <ellipse cx="658.88" cy="84.65" fill="#FFF" fill-rule="nonzero" rx="59.43" ry="78.11"/>
          <ellipse cx="649.03" cy="76.51" stroke="#59221D" stroke-linecap="round" stroke-width="5" rx="61.56" ry="75.76"/>
          <path stroke="#59221D" stroke-linecap="round" stroke-width="5" d="M645.77,0.75 L628.37,0.75 C594.37,0.75 566.81,34.67 566.81,76.51 C566.81,118.35 594.37,152.27 628.37,152.27 L645.77,152.27"/>
          <ellipse cx="92.25" cy="84.65" fill="#FFF" fill-rule="nonzero" rx="59.43" ry="78.11"/>
          <ellipse cx="82.4" cy="76.51" stroke="#59221D" stroke-linecap="round" stroke-width="5" rx="61.56" ry="75.76"/>
          <path stroke="#59221D" stroke-linecap="round" stroke-width="5" d="M79.14,0.75 L61.74,0.75 C27.74,0.75 0.18,34.67 0.18,76.51 C0.18,118.35 27.74,152.27 61.74,152.27 L79.14,152.27"/>
        </g>
        <g stroke-linecap="round" transform="translate(169 668)">
          <path stroke="#59221D" stroke-width="5" d="M1899.35 1076.4L1899.35 872.47C1899.35 836.719187 1879.68076 803.867652 1848.17 786.98L1462.28 607.35M574 1032.46L799.65 21.81C802.341936 9.7664055 813.029227 1.2 825.37 1.2L1406.1 1.2C1416.01622 1.2 1425.39401 5.7114461 1431.59574 13.4490198 1437.79746 21.1865934 1440.15306 31.3203444 1438 41L1216.64 1032.43"/>
          <line x1="591.29" x2="124.65" y1="607.35" y2="607.35" stroke="#59221D" stroke-width="5"/>
          <line x1="149.33" x2="1858.88" y1="1.2" y2="1.2" stroke="#59221D" stroke-width="5"/>
          <line x1="2107.38" x2="2475.59" y1="845.48" y2="845.48" stroke="#59221D" stroke-width="5"/>
          <line x1="1529.99" x2="2129.05" y1="607.35" y2="607.35" stroke="#59221D" stroke-width="5"/>
          <path stroke="#59221D" stroke-width="5" d="M0.36,1024 C39.01,933.8 124.94,871 224.73,871 C327.99,871 416.39,938.19 452.95,1033.45 L1315.82,1033.45 C1349.7,933.7 1439.31,871 1539.1,871 C1642.36,871 1730.76,938.19 1767.31,1033.45"/>
          <rect width="295.05" height="144.32" x="2143.96" y="880.12" stroke="#FFF" stroke-width="6" rx="18.83"/>
          <line x1="2185.32" x2="2397.64" y1="920.53" y2="920.53" stroke="#59221D" stroke-width="5"/>
          <line x1="2185.32" x2="2397.64" y1="954.24" y2="954.24" stroke="#59221D" stroke-width="5"/>
          <line x1="2185.32" x2="2397.64" y1="987.95" y2="987.95" stroke="#59221D" stroke-width="5"/>
        </g>
        <g transform="translate(200 1586)">
          <path fill="#59221D" fill-rule="nonzero" d="M386.75,158.4 L0.75,158.4 C21.12,67.73 99.81,0.14 193.75,0.14 C287.69,0.14 366.38,67.73 386.75,158.4 Z"/>
          <path fill="#A74602" fill-rule="nonzero" stroke="#59221D" stroke-width="5" d="M341.79,204.48 C341.79,284.24 286.4,348.9 210.97,348.9 L176.12,348.9 C248.88,348.9 307.87,284.24 307.87,204.48 C307.87,124.72 248.87,60.06 176.12,60.06 L211,60.06 C286.4,60.06 341.79,124.72 341.79,204.48 Z"/>
          <ellipse cx="176.12" cy="204.48" fill="#FFF" fill-rule="nonzero" stroke="#59221D" stroke-width="5" rx="131.75" ry="144.42"/>
          <ellipse cx="185.7" cy="214.32" fill="#A74602" fill-rule="nonzero" rx="79.86" ry="87.54"/>
          <ellipse cx="176.12" cy="205.61" stroke="#59221D" stroke-width="5" rx="79.86" ry="87.54"/>
          <circle cx="175.9" cy="205.56" r="13" stroke="#59221D" stroke-width="5"/>
          <path fill="#59221D" fill-rule="nonzero" d="M1701.12,158.4 L1315.12,158.4 C1335.49,67.73 1414.18,0.14 1508.12,0.14 C1602.06,0.14 1680.75,67.73 1701.12,158.4 Z"/>
          <path fill="#A74602" fill-rule="nonzero" stroke="#59221D" stroke-width="5" d="M1656.16,204.48 C1656.16,284.24 1600.77,348.9 1525.34,348.9 L1490.49,348.9 C1563.25,348.9 1622.24,284.24 1622.24,204.48 C1622.24,124.72 1563.24,60.06 1490.49,60.06 L1525.34,60.06 C1600.77,60.06 1656.16,124.72 1656.16,204.48 Z"/>
          <ellipse cx="1490.49" cy="204.48" fill="#FFF" fill-rule="nonzero" stroke="#59221D" stroke-width="5" rx="131.75" ry="144.42"/>
          <ellipse cx="1500.07" cy="214.32" fill="#A74602" fill-rule="nonzero" rx="79.86" ry="87.54"/>
          <ellipse cx="1490.49" cy="205.61" stroke="#59221D" stroke-width="5" rx="79.86" ry="87.54"/>
          <circle cx="1490.27" cy="205.56" r="13" stroke="#59221D" stroke-width="5"/>
        </g>
        <g transform="translate(410)">
          <path fill="#7EBAD2" fill-rule="nonzero" d="M1277.56,448.1 L1277.56,587.24 C1277.56,595.581059 1274.24653,603.580489 1268.34851,609.478508 C1262.45049,615.376527 1254.45106,618.69 1246.11,618.69 L232.37,618.69 C224.029861,618.69 216.031458,615.376209 210.135027,609.477902 C204.238595,603.579595 200.929998,595.580139 200.929998,587.24 L200.929998,448.09 C200.929998,439.75078 204.238913,431.752351 210.135632,425.855632 C216.032351,419.958913 224.03078,416.647346 232.37,416.649998 L1246.1,416.649998 C1263.47097,416.649998 1277.56,430.729027 1277.56,448.1 Z"/>
          <path fill="#A74602" fill-rule="nonzero" d="M1277.56,448.1 L1277.56,587.24 C1277.56,595.581059 1274.24653,603.580489 1268.34851,609.478508 C1262.45049,615.376527 1254.45106,618.69 1246.11,618.69 L896.78,618.69 C879.41455,618.684478 865.34,604.605451 865.34,587.24 L865.34,448.09 C865.34,439.751594 868.652419,431.754707 874.548563,425.858563 C880.444707,419.962419 888.441594,416.65 896.78,416.65 L1246.1,416.65 C1263.47097,416.65 1277.55448,430.729027 1277.56,448.1 Z"/>
          <path stroke="#7EBAD2" stroke-linecap="round" stroke-width="5" d="M1264.47,456.64 L1264.47,578.7 C1264.47,593.94 1251.36,606.29 1235.18,606.29 L909.89,606.29 C893.72,606.29 880.61,593.94 880.61,578.7 L880.61,456.63 C880.61,441.39 893.72,429.039903 909.89,429.039903 L1235.17,429.039903 C1251.35,429 1264.47,441.4 1264.47,456.64 Z"/>
          <line x1="880.53" x2="1261.27" y1="517.12" y2="517.12" stroke="#7EBAD2" stroke-linecap="round" stroke-width="5"/>
          <path stroke="#59221D" stroke-linecap="round" stroke-width="5" d="M1038.14,0.3 L1040,0.3 C1045.86526,0.3 1050.62,5.05473596 1050.62,10.92 L1050.62,73.92 L1027.53,73.92 L1027.53,10.92 C1027.53,5.05473596 1032.28474,0.3 1038.15,0.3 L1038.14,0.3 Z"/>
          <path fill="#59221D" fill-rule="nonzero" d="M966.59,70.65 L1110.15,70.65 C1125.71891,70.65 1138.34,83.2710929 1138.34,98.84 L1138.34,416.65 L938.4,416.65 L938.4,98.84 C938.4,83.2710929 951.021093,70.65 966.59,70.65 Z"/>
          <path fill="#FFF" fill-rule="nonzero" d="M1138.33,98.84 L1138.33,104.43 L1041.85,198.07 L1041.85,416.65 L1036.85,416.65 L1036.85,197.89 L938.4,104.34 L938.4,98.84 C938.4,98.38 938.4,97.93 938.4,97.48 L1036.85,191 L1036.85,70.65 L1041.85,70.65 L1041.85,191.1 L1138.29,97.5 C1138.32,97.94 1138.33,98.39 1138.33,98.84 Z"/>
          <line x1="1068.99" x2="1068.99" y1="618.69" y2="549.42" stroke="#59221D" stroke-width="5"/>
          <line x1="56.6" x2="56.6" y1="618.69" y2="549.42" stroke="#59221D" stroke-width="5"/>
          <line x1="1472.42" x2="1472.42" y1="618.69" y2="549.42" stroke="#59221D" stroke-width="5"/>
          <line x1=".69" x2="1510.29" y1="549.42" y2="549.42" stroke="#59221D" stroke-linecap="round" stroke-width="5"/>
          <path fill="#FFC200" fill-rule="nonzero" d="M385.45,184.28 L899.65,184.28 C921.039324,184.28 938.383441,201.610683 938.4,223 L938.4,416.65 L350.24,416.65 L350.24,219.49 C350.24,210.151727 353.949614,201.195926 360.55277,194.59277 C367.155926,187.989614 376.111727,184.28 385.45,184.28 Z"/>
          <path stroke="#FFF" stroke-width="5" d="M936.23,416.65 L936.23,222.73 C936.23,202.714243 920.015745,186.482074 900,186.46 L857.25,186.46 C836.103017,186.46 818.96,203.603017 818.96,224.75 L818.96,416.65"/>
          <line x1="383.09" x2="383.09" y1="184.28" y2="416.65" stroke="#FFF" stroke-width="5"/>
          <line x1="416.8" x2="416.8" y1="184.28" y2="416.65" stroke="#FFF" stroke-width="5"/>
          <line x1="450.51" x2="450.51" y1="184.28" y2="416.65" stroke="#FFF" stroke-width="5"/>
          <line x1="484.22" x2="484.22" y1="184.28" y2="416.65" stroke="#FFF" stroke-width="5"/>
          <line x1="517.93" x2="517.93" y1="184.28" y2="416.65" stroke="#FFF" stroke-width="5"/>
          <line x1="551.64" x2="551.64" y1="184.28" y2="416.65" stroke="#FFF" stroke-width="5"/>
          <line x1="585.35" x2="585.35" y1="184.28" y2="416.65" stroke="#FFF" stroke-width="5"/>
          <line x1="619.06" x2="619.06" y1="184.28" y2="416.65" stroke="#FFF" stroke-width="5"/>
          <line x1="652.77" x2="652.77" y1="184.28" y2="416.65" stroke="#FFF" stroke-width="5"/>
          <line x1="686.48" x2="686.48" y1="184.28" y2="416.65" stroke="#FFF" stroke-width="5"/>
          <line x1="720.19" x2="720.19" y1="184.28" y2="416.65" stroke="#FFF" stroke-width="5"/>
          <line x1="753.9" x2="753.9" y1="184.28" y2="416.65" stroke="#FFF" stroke-width="5"/>
          <line x1="787.61" x2="787.61" y1="184.28" y2="416.65" stroke="#FFF" stroke-width="5"/>
          <line x1="350.24" x2="816.21" y1="385.28" y2="385.28" stroke="#FFF" stroke-width="5"/>
          <line x1="350.24" x2="816.21" y1="351.57" y2="351.57" stroke="#FFF" stroke-width="5"/>
          <line x1="350.24" x2="816.21" y1="317.86" y2="317.86" stroke="#FFF" stroke-width="5"/>
          <line x1="350.24" x2="816.21" y1="284.15" y2="284.15" stroke="#FFF" stroke-width="5"/>
          <line x1="350.24" x2="816.21" y1="250.44" y2="250.44" stroke="#FFF" stroke-width="5"/>
          <line x1="350.24" x2="819.47" y1="216.73" y2="216.73" stroke="#FFF" stroke-width="5"/>
          <line x1="877.57" x2="877.57" y1="186.46" y2="416.65" stroke="#FFF" stroke-width="5"/>
          <path stroke="#59221D" stroke-linecap="round" stroke-width="5" d="M689.74,140.129974 L692.74,140.129974 C702.294526,140.129974 710.04,147.875474 710.04,157.43 L710.04,160.43 C710.04,169.984526 702.294526,177.73 692.74,177.73 L672.41,177.73 L672.41,157.43 C672.41,152.836552 674.236784,148.431677 677.487655,145.186434 C680.738525,141.941191 685.146559,140.122034 689.74,140.129974 L689.74,140.129974 Z"/>
          <path stroke="#59221D" stroke-linecap="round" stroke-width="5" d="M646.67 124.74L650.5 124.74C662.611605 124.74 672.43 134.558395 672.43 146.67L672.43 177.76 646.67 177.76C634.558395 177.76 624.74 167.941605 624.74 155.83L624.74 146.67C624.74 134.558395 634.558395 124.74 646.67 124.74zM672.44 177.76C647.823515 177.76 626.099722 193.850766 618.93 217.4L519.87 549.4"/>
        </g>
        <g transform="translate(2310 1002)">
          <ellipse cx="57.17" cy="69.92" fill="#FFC200" fill-rule="nonzero" rx="45.8" ry="63.56"/>
          <ellipse cx="46.03" cy="64.04" stroke="#59221D" stroke-linecap="round" stroke-width="5" rx="45.8" ry="63.56"/>
          <path stroke="#59221D" stroke-linecap="round" stroke-width="5" d="M7.12,205.87 C7.13333002,155.952596 25.6617111,107.814437 59.12,70.77"/>
        </g>
      </g>
      <g transform="translate(1100 765)">
        <path fill="#59221D" fill-rule="nonzero" d="M3.89,41.27 L249.77,0.4 L321.22,178.11 C331.842099,204.524602 326.08683,234.707532 306.49,255.36 L294.2,268.36 L294.2,323.93 L0.2,323.93 L3.89,41.27 Z" transform="translate(153 154)"/>
        <g transform="translate(0 153)">
          <path fill="#A74602" fill-rule="nonzero" d="M459.49,256.36 C479.08683,235.707532 484.842099,205.524602 474.22,179.11 L402.77,1.4 C438.13828,-4.47850707 473.151744,13.6470678 488.77,45.92 L565.84,205.22 C592.62,260.58 552.29,324.88 490.84,324.88 L447.2,324.88 L447.2,269.31 L459.49,256.36 Z"/>
          <g transform="translate(0 42)">
            <path fill="#A74602" fill-rule="nonzero" d="M150.17,1.22 L150.17,1.22 C121.309832,6.11288019 96.6280366,24.7267876 83.99,51.13 L13.87,197.68 C-41.88,314.19 83.14,434.41 197.38,374.15 L370.38,282.88 L558.5,282.88 C567.010708,282.88 573.91,275.980708 573.91,267.47 L573.91,267.47 C573.91,261.649993 570.628289,256.327303 565.43,253.71 L481.12,211.22 C451.74565,196.420666 419.311833,188.711213 386.42,188.71 L204.81,188.71 L207.09,50.1 C207.326931,35.601918 201.100352,21.750203 190.099853,12.3035344 C179.099354,2.8568658 164.465792,-1.20504731 150.17,1.22 Z"/>
            <path stroke="#59221D" stroke-linecap="round" stroke-width="5" d="M558.5 279.62C567.01 279.62 573.91 275.98 573.91 267.47L573.91 267.47C573.91 261.649993 570.628289 256.327303 565.43 253.71L481.12 211.22C451.74565 196.420666 419.311833 188.711213 386.42 188.71L233.37 188.71C205.414832 188.71 177.970247 196.200243 153.89 210.4M348.67 254.6C348.67 268.407119 359.862881 279.6 373.67 279.6"/>
            <path stroke="#59221D" stroke-linecap="round" stroke-width="5" d="M470.05 236.56L533.05 262.36C540.051389 265.232968 544.622486 272.052081 544.620001 279.62M428.32 242.18L477.58 262.36C484.581389 265.232968 489.152486 272.052081 489.150001 279.62"/>
          </g>
        </g>
        <g transform="translate(137)">
          <path fill="#FFC200" fill-rule="nonzero" d="M269.34,153.89 L142.13,175 C130.05,226 84.7,257.46 34.58,240.18 C-74.42,202.6 112.88,51.67 145.03,23.62 C179.41,-6.38 225.03,-7.24 235.58,19.7 C245.35,44.57 225.08,55.7 210.58,57.76 C212.18,69.26 223.31,137.63 269.34,153.89 Z"/>
          <g fill-rule="nonzero" transform="translate(134 84)">
            <path fill="#A74602" d="M67.15,29.54 L67.15,88.86 C67.15,107.273174 52.2231736,122.2 33.81,122.2 L33.81,122.2 C15.3968264,122.2 0.47,107.273174 0.47,88.86 L0.47,0.6 L67.15,29.54 Z"/>
            <path fill="#59221D" d="M0.469998473,0.6 L0.469998473,0.6 L67.15,29.54 L67.15,81.25 L26.74,55.91 C10.112962,42.3606587 0.46556682,22.0486135 0.469998473,0.6 Z"/>
          </g>
          <path fill="#A74602" fill-rule="nonzero" d="M208.16,57.7 L208.16,97.88 C208.16,104.820716 205.402811,111.477157 200.494984,116.384984 C195.587157,121.292811 188.930716,124.050007 181.99,124.050007 L175.93,124.050007 C161.53314,124.058245 148.16419,116.591927 140.62,104.33 L122.48,104.33 C113.019035,104.103337 105.467463,96.3686798 105.467463,86.905 C105.467463,77.4413202 113.019035,69.7066628 122.48,69.48 L127.92,69.48 C130.491097,69.4719752 132.999543,70.2731385 135.09,71.77 L165.3,37.23 C184.5,58.88 208.16,57.7 208.16,57.7 Z"/>
          <g transform="translate(120 61)">
            <path stroke="#59221D" stroke-linecap="round" stroke-width="5" d="M11.59 28.42C11.59 22.2123194 6.55768059 17.18.35 17.18M86 1.89C86 1.89 75.72.76 69 8.4 64.68 13.32 64.5 25.4 70.09 33.34"/>
            <ellipse cx="48.13" cy="18.86" fill="#59221D" fill-rule="nonzero" rx="3.14" ry="4.28"/>
            <ellipse cx="77.35" cy="18.86" fill="#59221D" fill-rule="nonzero" rx="3.14" ry="4.28"/>
            <path stroke="#59221D" stroke-linecap="round" stroke-width="5" d="M69 43.52C69 43.52 57.35 46.52 55.9 38.15M33.68 6.11C33.68 6.11 42.52-.75 53.68 1.41"/>
          </g>
        </g>
      </g>
      <g transform="translate(478 982)">
        <path fill="#7EBAD2" fill-rule="nonzero" d="M592.75,0.44 L547.92,201 C540.396428,234.657559 511.289869,259.124595 476.84,260.75 C475.65,260.75 474.44,260.84 473.23,260.84 L48.39,260.84 C33.9710103,260.84 20.3349811,254.280898 11.3346295,243.015866 C2.33427786,231.750834 -1.05293954,217.003291 2.13,202.94 L26,97.57 C38.8492585,40.772463 89.3171601,0.443813979 147.55,0.44 L592.75,0.44 Z"/>
        <g fill-rule="nonzero" transform="translate(90 156)">
          <path fill="#FFF" d="M0.15,104.88 C33.15,43.08 107.33,0.02 193.51,0.02 C279.69,0.02 350.51,43.02 383.58,104.79 L0.15,104.88 Z"/>
          <path fill="#59221D" d="M276.42,14.44 L251.52,104.82 L251.52,104.88 L246.41,104.88 L246.41,104.82 L249.1,6.29 C258.368741,8.43039899 267.493471,11.1524541 276.42,14.44 L276.42,14.44 Z"/>
        </g>
        <g transform="translate(341)">
          <path fill="#FFF" fill-rule="nonzero" d="M133.06,114.39 L133.06,260.88 L0.29,260.88 L41.18,114.39 C41.18,122.83 61.58,129.67 86.76,129.67 C111.94,129.67 130.05,122.27 133.06,114.39 Z"/>
          <path fill="#A74602" fill-rule="nonzero" d="M133.06,114.39 C130.06,122.27 111.93,129.67 86.76,129.67 C61.59,129.67 41.18,122.83 41.18,114.39 L41.18,51.39 C41.18,51.39 48.18,48.68 56.81,59.33 C65.44,69.98 71.81,66.19 75.75,57.33 C80.16,47.51 96.33,0.33 119.05,0.33 C137.52,0.33 135.05,36.92 133.99,47.67 C133.9636,48.0220415 134.171078,48.34977 134.500577,48.4765003 C134.830076,48.6032307 135.203691,48.4989995 135.42,48.22 C138.68,43.95 145.66,35.44 149.18,35.99 C153.87,36.81 134.5,110.64 133.06,114.39 Z"/>
          <line x1="112.95" x2="96.32" y1="4.18" y2="56.48" stroke="#59221D" stroke-linecap="round" stroke-width="5"/>
          <line x1="126" x2="110.46" y1="7.53" y2="58.66" stroke="#59221D" stroke-linecap="round" stroke-width="5"/>
          <line x1="134.51" x2="130.54" y1="48.48" y2="60.45" stroke="#59221D" stroke-linecap="round" stroke-width="5"/>
        </g>
        <g transform="translate(213 30)">
          <g fill-rule="nonzero" transform="translate(31 103)">
            <path fill="#A74602" d="M0.29,0.63 L70.35,0.63 L70.35,23.07 C70.35,41.1241885 55.7141885,55.76 37.66,55.76 L33,55.76 C14.9458115,55.76 0.31,41.1241885 0.31,23.07 L0.31,0.63 L0.29,0.63 Z"/>
            <path fill="#59221D" d="M0.289991299,0.63 L70.350001,0.63 L70.350001,23.3 C70.3524512,33.0707996 65.9427011,42.3202504 58.35,48.47 L21.05,32.32 C8.43567937,26.8345755 0.280267509,14.3853943 0.289991299,0.63 L0.289991299,0.63 Z"/>
          </g>
          <path fill="#A74602" fill-rule="nonzero" d="M31.39,85.35 C31.3899913,87.1023677 32.807641,88.5244894 34.56,88.53 L36.27,88.53 C38.0262655,88.53 39.45,87.1062655 39.45,85.35 L39.45,81.62 C39.4499996,72.4709504 43.0851297,63.6967681 49.5554224,57.2283509 C56.0257151,50.7599337 64.8009508,47.1273473 73.95,47.1299985 L112.14,47.1299985 L114.54,91.24 C114.998606,99.6746802 111.968358,107.926784 106.160195,114.06025 C100.352032,120.193715 92.2771384,123.668728 83.83,123.670001 L62.56,123.670001 C51.9487692,123.673 42.0862888,118.203084 36.47,109.2 L16.87,109.2 C12.3731825,109.200134 8.06241273,107.404929 4.89491038,104.213018 C1.72740803,101.021107 -0.0346524189,96.696684 -0.000501596016,92.2 C0.223684131,82.824681 7.93239492,75.3653565 17.31,75.45 L21.48,75.45 C26.9414475,75.449975 31.3734669,79.8685775 31.39,85.33 L31.39,85.35 Z"/>
          <path fill="#FFC200" fill-rule="nonzero" d="M39.45,85.35 C39.45,87.1062655 38.0262655,88.53 36.27,88.53 L34.56,88.53 C32.807641,88.5244894 31.3899913,87.1023677 31.39,85.35 C31.3844878,79.8957115 26.9642885,75.4755122 21.51,75.47 L19.23,59.13 C19.23,45.25 29.18,34 41.45,34 C43.7406953,33.9997298 46.0141871,34.395561 48.17,35.17 C50.24,23.52 59.95,14.69 71.62,14.69 C76.9466604,14.6954753 82.1052431,16.5552522 86.21,19.95 C89.6810754,8.4789159 100.22541,0.611219791 112.21,0.55 C127.21,0.55 139.43,13.01 139.43,28.39 C139.43,43.77 127.24,56.23 112.21,56.23 C104.505697,56.2228291 97.1751038,52.9089495 92.08,47.13 L74,47.13 C55.5223465,47.1131904 40.3179866,61.6691485 39.53,80.13 L39.45,85.35 Z"/>
          <g transform="translate(15 65)">
            <path stroke="#59221D" stroke-linecap="round" stroke-width="5" d="M9.77 25.86C9.03953351 21.568109 5.32360402 18.4264595.97 18.42M94.48 1.49C94.48 1.49 84.79-2.68 77.57 5.91 73.35 10.91 71.31 23.53 75.4 29.76"/>
            <ellipse cx="55.58" cy="17.46" fill="#59221D" fill-rule="nonzero" rx="3.14" ry="4.28"/>
            <ellipse cx="84.79" cy="17.46" fill="#59221D" fill-rule="nonzero" rx="3.14" ry="4.28"/>
            <path stroke="#59221D" stroke-linecap="round" stroke-width="5" d="M74.23 41C74.23 41 63.38 42.08 61.13 36.71M42.21 6.88C42.21 6.88 46.78-.04 58.98.01"/>
          </g>
        </g>
      </g>
    </g>
    <circle cx="3050.91" cy="149.52" r="149.52" stroke="#FFC200" stroke-width="6"/>
  </g>
</svg>
