<svg xmlns="http://www.w3.org/2000/svg" width="700" height="500" viewBox="0 0 700 500">
  <g fill="none" fill-rule="evenodd">
    <rect width="700" height="500" fill="#FFF" fill-opacity=".1"/>
    <path fill="#000" fill-rule="nonzero" d="M100,0 C155.228475,0 200,44.771525 200,100 C200,155.228475 155.228475,200 100,200 C44.771525,200 0,155.228475 0,100 C0,44.771525 44.771525,0 100,0 Z M46.75856,73.6031017 L46.7568797,73.6047817 C31.0579548,82.4202653 16.1203204,92.5329537 2.1031161,103.831448 C-1.53430326,106.746416 3.62023437,111.828868 7.20892253,108.937255 L7.20793373,108.962319 C20.1550305,98.599308 33.8948153,89.2664047 48.2982563,81.04748 C58.4866433,75.219093 69.4943853,69.4143617 81.1038477,67.1261897 C84.0658693,66.5482113 91.653095,65.0058887 94.3984713,67.2941983 C97.1437617,69.5824993 93.4105573,77.5311877 92.832622,82.0352737 C87.8227293,121.751403 132.382299,122.715704 160.419719,118.404736 C172.731547,116.561639 184.872192,113.708822 196.716923,109.878284 C201.123805,108.433381 199.126213,101.447317 194.789826,102.917424 L194.791506,102.917424 C177.904624,108.606456 160.336022,112.023661 142.550646,113.080435 C131.397958,113.634886 117.863334,113.537424 108.348495,106.746241 C95.5596783,97.593123 99.4844093,80.2507573 103.843979,67.7023703 C104.208564,66.4473167 103.847339,65.093166 102.904797,64.1858973 C86.9607107,51.2035317 61.6445813,65.3182843 46.75856,73.6031017 Z" opacity=".098" transform="translate(250 70)"/>
  </g>
</svg>
