<svg xmlns="http://www.w3.org/2000/svg" width="40" height="40" viewBox="0 0 40 40">
  <path d="M20,0 C31.045695,0 40,8.954305 40,20 C40,31.045695 31.045695,40 20,40 C8.954305,40 0,31.045695 0,20 C0,8.954305 8.954305,0 20,0 Z M9.351712,14.7206203 L9.35137593,14.7209563 C6.21159096,16.4840531 3.22406408,18.5065907 0.420623219,20.7662897 C-0.306860651,21.3492832 0.724046873,22.3657735 1.44178451,21.7874509 L1.44158675,21.7924637 C4.0310061,19.7198616 6.77896307,17.8532809 9.65965127,16.209496 C11.6973287,15.0438186 13.8988771,13.8828723 16.2207695,13.4252379 C16.8131739,13.3096423 18.330619,13.0011777 18.8796943,13.4588397 C19.4287523,13.9164999 18.6821115,15.5062375 18.5665244,16.4070547 C17.5645459,24.3502805 26.4764599,24.5431407 32.0839437,23.6809472 C34.5463093,23.3123278 36.9744383,22.7417644 39.3433846,21.9756569 C40.2247609,21.6866762 39.8252427,20.2894633 38.9579653,20.5834848 L38.9583013,20.5834848 C35.5809249,21.7212913 32.0672045,22.4047321 28.5101292,22.616087 C26.2795915,22.7269773 23.5726668,22.7074848 21.6696991,21.3492483 C19.1119357,19.5186246 19.8968819,16.0501515 20.7687959,13.5404741 C20.8417129,13.2894633 20.7694679,13.0186332 20.5809593,12.8371795 C17.3921421,10.2407063 12.3289163,13.0636569 9.351712,14.7206203 Z"/>
</svg>
