<svg xmlns="http://www.w3.org/2000/svg" xmlns:xlink="http://www.w3.org/1999/xlink" width="135" height="60" viewBox="0 0 135 60">
  <defs>
    <path id="logo-a" d="M4.12363636,23.2363636 L4.12363636,0.327272727 L0,0.327272727 L0,23.2363636 L4.12363636,23.2363636 Z M11.3236364,23.2363636 L11.3236364,11.3890909 L10.7018182,6.97090909 L10.8981818,6.97090909 L12.1090909,10.9309091 L16.0690909,19.0145455 L17.4436364,19.0145455 L21.1745455,10.9636364 L22.3854545,7.03636364 L22.5490909,7.03636364 L22.0909091,11.4218182 L22.0909091,23.2363636 L26.2145455,23.2363636 L26.2145455,0.327272727 L22.32,0.327272727 L17.8363636,10.1781818 L17.0836364,13.0909091 L16.9527273,13.0909091 L16.1672727,10.2436364 L11.3890909,0.327272727 L7.42909091,0.327272727 L7.42909091,23.2363636 L11.3236364,23.2363636 Z M35.7709091,23.4 L38.9781818,10.8 L39.3709091,7.2 L39.5345455,7.2 L39.96,10.7672727 L43.1672727,23.4 L46.08,23.4 L51.2181818,0.327272727 L47.0290909,0.327272727 L45,12.8618182 L44.64,17.0509091 L44.5090909,17.0509091 L44.1490909,12.9272727 L41.1709091,0.327272727 L38.2909091,0.327272727 L35.2145455,12.8618182 L34.8545455,17.0509091 L34.7236364,17.0509091 L34.3963636,12.9272727 L32.1709091,0.327272727 L27.6218182,0.327272727 L32.7272727,23.4 L35.7709091,23.4 Z M57.8945455,23.5963636 C59.8145455,23.5963636 61.4072727,23.2690909 62.6727273,22.6145455 C63.9381818,21.96 64.9418182,21.0818182 65.6836364,19.98 C66.4254545,18.8781818 66.9436364,17.6018182 67.2381818,16.1509091 C67.5327273,14.7 67.68,13.1781818 67.68,11.5854545 C67.68,9.84 67.5272727,8.25818182 67.2218182,6.84 C66.9163636,5.42181818 66.3981818,4.20545455 65.6672727,3.19090909 C64.9363636,2.17636364 63.9654545,1.39090909 62.7545455,0.834545455 C61.5436364,0.278181818 60.0327273,0 58.2218182,0 C57.8509091,0 57.4254545,0.00545454545 56.9454545,0.0163636364 C56.4654545,0.0272727273 55.9690909,0.0490909091 55.4563636,0.0818181818 C54.9436364,0.114545455 54.4418182,0.147272727 53.9509091,0.18 C53.46,0.212727273 53.0181818,0.261818182 52.6254545,0.327272727 L52.6254545,0.327272727 L52.6254545,23.2690909 C52.8872727,23.3127273 53.2581818,23.3509091 53.7381818,23.3836364 C54.2181818,23.4163636 54.72,23.4490909 55.2436364,23.4818182 C55.7672727,23.5145455 56.2690909,23.5418182 56.7490909,23.5636364 C57.2290909,23.5854545 57.6109091,23.5963636 57.8945455,23.5963636 Z M58.4836364,19.8 C58.4181818,19.8 58.3036364,19.7945455 58.14,19.7836364 C57.9763636,19.7727273 57.8018182,19.7618182 57.6163636,19.7509091 C57.4309091,19.74 57.2563636,19.7290909 57.0927273,19.7181818 C56.9290909,19.7072727 56.8145455,19.6909091 56.7490909,19.6690909 L56.7490909,19.6690909 L56.7490909,3.89454545 C56.9454545,3.85090909 57.2236364,3.82363636 57.5836364,3.81272727 C57.9436364,3.80181818 58.2981818,3.79636364 58.6472727,3.79636364 C59.6290909,3.79636364 60.4309091,4.00909091 61.0527273,4.43454545 C61.6745455,4.86 62.1545455,5.42727273 62.4927273,6.13636364 C62.8309091,6.84545455 63.06,7.66909091 63.18,8.60727273 C63.3,9.54545455 63.36,10.5163636 63.36,11.52 C63.36,12.6109091 63.2890909,13.6527273 63.1472727,14.6454545 C63.0054545,15.6381818 62.7545455,16.5163636 62.3945455,17.28 C62.0345455,18.0436364 61.5381818,18.6545455 60.9054545,19.1127273 C60.2727273,19.5709091 59.4654545,19.8 58.4836364,19.8 Z"/>
  </defs>
  <g fill="none" fill-rule="evenodd">
    <path fill="#000" d="M30,0 C46.5685425,0 60,13.4314575 60,30 C60,46.5685425 46.5685425,60 30,60 C13.4314575,60 0,46.5685425 0,30 C0,13.4314575 13.4314575,0 30,0 Z M14.027568,22.0809305 L14.0270639,22.0814345 C9.31738644,24.7260796 4.83609612,27.7598861 0.630934829,31.1494345 C-0.460290977,32.0239248 1.08607031,33.5486603 2.16267676,32.6811764 L2.16238012,32.6886956 C6.04650915,29.5797924 10.1684446,26.7799214 14.4894769,24.314244 C17.545993,22.5657279 20.8483156,20.8243085 24.3311543,20.1378569 C25.2197608,19.9644634 27.4959285,19.5017666 28.3195414,20.1882595 C29.1431285,20.8747498 28.0231672,23.2593563 27.8497866,24.6105821 C26.3468188,36.5254208 39.7146898,36.8147111 48.1259156,35.5214208 C51.819464,34.9684917 55.4616575,34.1126466 59.0150769,32.9634853 C60.3371414,32.5300143 59.737864,30.434195 58.4369479,30.8752272 L58.4374519,30.8752272 C53.3713873,32.5819369 48.1008067,33.6070982 42.7651938,33.9241305 C39.4193873,34.0904659 35.3590002,34.0612272 32.5045486,32.0238724 C28.6679035,29.2779369 29.8453228,24.0752272 31.1531938,20.3107111 C31.2625693,19.934195 31.1542018,19.5279498 30.871439,19.2557692 C26.0882132,15.3610595 18.4933744,19.5954853 14.027568,22.0809305 Z"/>
    <g fill-rule="nonzero" transform="translate(66.6 18)">
      <use fill="#FFFFFE" xlink:href="#logo-a"/>
      <use fill="#000" xlink:href="#logo-a"/>
    </g>
  </g>
</svg>
