<svg xmlns="http://www.w3.org/2000/svg" width="446" height="200" viewBox="0 0 446 200">
  <path fill="#FFDD00" d="M99.6307436 0C154.655284 0 199.261487 44.6062033 199.261487 99.6307436 199.261487 154.655284 154.655284 199.261487 99.6307436 199.261487 44.6062033 199.261487 0 154.655284 0 99.6307436 0 44.6062033 44.6062033 0 99.6307436 0zM46.585901 73.3313175L46.5842269 73.3329913C30.9432713 82.1159232 16.0607951 92.1912698 2.0953502 103.448044-1.52863774 106.352248 3.60686642 111.415932 7.18230312 108.534997L7.18131797 108.559968C20.0806068 98.2352237 33.7696565 88.9367827 48.1199119 80.748207 58.2706776 74.9413417 69.2377728 69.1580447 80.8043665 66.8783219 83.7554507 66.3024778 91.31466 64.7658502 94.0498989 67.0457102 96.7850521 69.3255615 93.0656328 77.2448988 92.4898316 81.7323531 87.4984382 121.301828 131.893469 122.262568 159.827359 117.967519 172.093724 116.131228 184.189539 113.288945 195.990533 109.472552 200.381142 108.032984 198.390927 101.072716 194.070552 102.537395L194.072226 102.537395C177.2477 108.20542 159.743971 111.610006 142.024269 112.662878 130.912762 113.215282 117.428116 113.11818 107.948412 106.352074 95.2068181 97.2327541 99.1170567 79.9544262 103.460529 67.452375 103.823767 66.2019557 103.463876 64.8528053 102.524814 63.9488868 86.6396026 51.0144593 61.4169547 65.0770924 46.585901 73.3313175zM234.874949 136.946986L234.874949 60.865327 221.180251 60.865327 221.180251 136.946986 234.874949 136.946986zM258.786328 136.946986L258.786328 97.6018993 256.721254 82.929008 257.373383 82.929008 261.394842 96.0802662 274.5461 122.926223 279.111 122.926223 291.501441 96.1889544 295.5229 83.1463842 296.06634 83.1463842 294.544707 97.7105875 294.544707 136.946986 308.239406 136.946986 308.239406 60.865327 295.305524 60.865327 280.415256 93.5804402 277.915431 103.25368 277.480678 103.25368 274.872164 93.7978165 259.003704 60.865327 245.852446 60.865327 245.852446 136.946986 258.786328 136.946986zM339.976326 137.490426L350.627759 95.6455138 351.932016 83.6898246 352.475456 83.6898246 353.888401 95.5368256 364.539833 137.490426 374.213073 137.490426 391.277102 60.865327 377.365027 60.865327 370.626366 102.492863 369.430797 116.404938 368.996045 116.404938 367.800476 102.710239 357.90986 60.865327 348.345309 60.865327 338.128629 102.492863 336.93306 116.404938 336.498308 116.404938 335.411427 102.710239 328.020637 60.865327 312.912994 60.865327 329.868334 137.490426 339.976326 137.490426zM413.449471 138.142554C419.825839 138.142554 425.115325 137.055674 429.317931 134.881912 433.520537 132.70815 436.853639 129.791687 439.317235 126.132521 441.780831 122.473356 443.501726 118.234521 444.479919 113.416016 445.458112 108.59751 445.947208 103.543515 445.947208 98.2540277 445.947208 92.45733 445.439997 87.2040726 444.425575 82.4942557 443.411153 77.7844387 441.690258 73.7448649 439.262891 70.3755343 436.835524 67.0062037 433.61111 64.3976897 429.589652 62.5499923 425.568193 60.7022948 420.550426 59.7784461 414.536352 59.7784461 413.304554 59.7784461 411.891608 59.7965608 410.297516 59.8327902 408.703425 59.8690195 407.054989 59.9414783 405.352209 60.0501663 403.649429 60.1588544 401.982878 60.2675425 400.352557 60.3762306 398.722236 60.4849187 397.254947 60.6479508 395.950689 60.865327L395.950689 60.865327 395.950689 137.055674C396.820194 137.200591 398.051992 137.327394 399.646084 137.436082 401.240176 137.54477 402.906727 137.653458 404.645736 137.762146 406.384746 137.870835 408.051296 137.961408 409.645388 138.033867 411.23948 138.106325 412.507508 138.142554 413.449471 138.142554zM415.405857 125.534737C415.18848 125.534737 414.808072 125.516622 414.264632 125.480393 413.721191 125.444164 413.141522 125.407934 412.525622 125.371705 411.909723 125.335475 411.330053 125.299246 410.786613 125.263017 410.243173 125.226787 409.862764 125.172443 409.645388 125.099985L409.645388 125.099985 409.645388 72.7123281C410.297516 72.5674107 411.221365 72.4768373 412.416934 72.4406079 413.612503 72.4043785 414.789957 72.3862639 415.949297 72.3862639 419.209939 72.3862639 421.872798 73.0927364 423.937871 74.5056815 426.002945 75.9186266 427.597037 77.8025534 428.720147 80.1574619 429.843257 82.5123704 430.604074 85.2476871 431.002597 88.3634122 431.40112 91.4791373 431.600381 94.7035503 431.600381 98.0366517 431.600381 101.659588 431.36489 105.119492 430.893908 108.416364 430.422927 111.713235 429.589652 114.629699 428.394083 117.165754 427.198514 119.70181 425.550078 121.730654 423.448775 123.252287 421.347472 124.77392 418.666499 125.534737 415.405857 125.534737z"/>
</svg>
